<svg width="380" height="224" viewBox="0 0 380 224" fill="none" xmlns="http://www.w3.org/2000/svg">
<g filter="url(#filter0_d_4_2185)">
<path d="M16 28C16 19.1635 23.1634 12 32 12H347.492C356.328 12 363.492 19.1634 363.492 28V187.92C363.492 196.757 356.328 203.92 347.492 203.92H32C23.1635 203.92 16 196.757 16 187.92V28Z" fill="url(#paint0_linear_4_2185)" shape-rendering="crispEdges"/>
<path d="M55.9834 48.9845H61.9809V54.982" stroke="#4FC3F7" stroke-width="1.99917" stroke-linecap="round" stroke-linejoin="round"/>
<path d="M61.9809 48.9845L53.4844 57.481L48.4865 52.483L41.9892 58.9803" stroke="#4FC3F7" stroke-width="1.99917" stroke-linecap="round" stroke-linejoin="round"/>
<path d="M73.3976 42.1123V39.5781H87.299V41.6289C85.9318 43.084 84.5743 45.0176 83.2267 47.4297C81.8888 49.8418 80.8536 52.3223 80.1212 54.8711C79.5939 56.668 79.257 58.6357 79.1105 60.7744H76.4005C76.4298 59.085 76.7618 57.0439 77.3966 54.6514C78.0314 52.2588 78.9396 49.9541 80.1212 47.7373C81.3126 45.5107 82.5773 43.6357 83.9152 42.1123H73.3976Z" fill="#01579B"/>
<path d="M43.476 87.0655V93.0855H42.454V88.0455H40.62V87.0655H43.476ZM41.152 82.9915L41.964 82.4735C42.2067 82.7255 42.454 83.0008 42.706 83.2995C42.9674 83.5981 43.21 83.8968 43.434 84.1955C43.6674 84.4848 43.8494 84.7415 43.98 84.9655L43.112 85.5535C42.9907 85.3295 42.818 85.0681 42.594 84.7695C42.3794 84.4708 42.146 84.1675 41.894 83.8595C41.642 83.5421 41.3947 83.2528 41.152 82.9915ZM42.916 92.3435C43.1494 92.3435 43.3734 92.4368 43.588 92.6235C43.812 92.8101 44.1294 93.0341 44.54 93.2955C45.0067 93.5941 45.548 93.7855 46.164 93.8695C46.7894 93.9535 47.5127 93.9955 48.334 93.9955C48.7634 93.9955 49.2114 93.9908 49.678 93.9815C50.154 93.9628 50.6254 93.9395 51.092 93.9115C51.568 93.8835 52.0207 93.8555 52.45 93.8275C52.8794 93.7901 53.2714 93.7528 53.626 93.7155C53.5794 93.8088 53.5327 93.9301 53.486 94.0795C53.4394 94.2195 53.3974 94.3595 53.36 94.4995C53.3227 94.6488 53.2994 94.7795 53.29 94.8915C53.038 94.9101 52.7067 94.9288 52.296 94.9475C51.8854 94.9661 51.4374 94.9801 50.952 94.9895C50.476 95.0081 50 95.0221 49.524 95.0315C49.0574 95.0408 48.6467 95.0455 48.292 95.0455C47.3774 95.0455 46.6074 94.9895 45.982 94.8775C45.3567 94.7748 44.7874 94.5648 44.274 94.2475C43.9847 94.0515 43.7187 93.8555 43.476 93.6595C43.2427 93.4635 43.0514 93.3655 42.902 93.3655C42.762 93.3655 42.5987 93.4541 42.412 93.6315C42.2254 93.7995 42.0294 94.0235 41.824 94.3035C41.6187 94.5928 41.4087 94.9008 41.194 95.2275L40.41 94.2055C40.8674 93.6641 41.3107 93.2208 41.74 92.8755C42.1787 92.5208 42.5707 92.3435 42.916 92.3435ZM48.698 85.4555H49.776V93.6315H48.698V85.4555ZM44.414 90.0755H53.164V91.0555H44.414V90.0755ZM44.526 83.7755H52.912V84.6995H44.526V83.7755ZM45.254 88.3675V87.4995L45.884 87.1775H52.506L52.492 88.1575H46.542C46.206 88.1575 45.9214 88.1761 45.688 88.2135C45.464 88.2508 45.3194 88.3021 45.254 88.3675ZM45.254 88.3675C45.2447 88.2928 45.2167 88.1948 45.17 88.0735C45.1327 87.9428 45.0907 87.8121 45.044 87.6815C44.9974 87.5508 44.9554 87.4388 44.918 87.3455C45.0394 87.3175 45.1607 87.2241 45.282 87.0655C45.4034 86.8975 45.534 86.6875 45.674 86.4355C45.7487 86.3141 45.8514 86.1135 45.982 85.8335C46.1127 85.5535 46.2574 85.2268 46.416 84.8535C46.584 84.4708 46.7474 84.0648 46.906 83.6355C47.0647 83.1968 47.2047 82.7581 47.326 82.3195L48.418 82.6135C48.2034 83.2295 47.9654 83.8501 47.704 84.4755C47.452 85.0915 47.1814 85.6795 46.892 86.2395C46.612 86.7995 46.332 87.3035 46.052 87.7515V87.7795C46.052 87.7795 46.01 87.7981 45.926 87.8355C45.8514 87.8728 45.758 87.9241 45.646 87.9895C45.5434 88.0455 45.45 88.1108 45.366 88.1855C45.2914 88.2508 45.254 88.3115 45.254 88.3675ZM60.122 83.6215H66.38V84.5175H60.122V83.6215ZM62.656 82.3195H63.692V86.1975H62.656V82.3195ZM60.626 87.7515L61.116 87.2335C61.424 87.3921 61.746 87.5881 62.082 87.8215C62.418 88.0548 62.6747 88.2695 62.852 88.4655L62.348 89.0535C62.1614 88.8575 61.9047 88.6381 61.578 88.3955C61.2514 88.1528 60.934 87.9381 60.626 87.7515ZM59.604 89.0255L60.108 88.4795C60.4254 88.6475 60.7567 88.8575 61.102 89.1095C61.4474 89.3521 61.718 89.5761 61.914 89.7815L61.396 90.3835C61.2187 90.1781 60.9574 89.9495 60.612 89.6975C60.2667 89.4361 59.9307 89.2121 59.604 89.0255ZM59.604 85.7775H66.338V86.6875H59.604V85.7775ZM66.114 85.7775H66.268L66.436 85.7355L67.108 85.9035C66.9587 86.3701 66.8 86.8461 66.632 87.3315C66.464 87.8168 66.296 88.2275 66.128 88.5635L65.288 88.3395C65.428 88.0315 65.5727 87.6535 65.722 87.2055C65.8807 86.7575 66.0114 86.3328 66.114 85.9315V85.7775ZM59.31 90.5655H67.136V91.4895H59.31V90.5655ZM63.062 87.2335H64.042V88.9275C64.042 89.4408 63.9954 89.9775 63.902 90.5375C63.8087 91.0975 63.6174 91.6575 63.328 92.2175C63.0387 92.7681 62.6 93.3001 62.012 93.8135C61.4334 94.3268 60.6494 94.7981 59.66 95.2275C59.6227 95.1435 59.5667 95.0548 59.492 94.9615C59.4267 94.8681 59.352 94.7748 59.268 94.6815C59.184 94.5881 59.1094 94.5088 59.044 94.4435C59.9587 94.0608 60.682 93.6408 61.214 93.1835C61.7554 92.7261 62.1567 92.2501 62.418 91.7555C62.6887 91.2608 62.8614 90.7708 62.936 90.2855C63.02 89.8001 63.062 89.3381 63.062 88.8995V87.2335ZM63.636 92.6095L64.28 92.0355C64.644 92.2781 65.022 92.5488 65.414 92.8475C65.8154 93.1461 66.1887 93.4495 66.534 93.7575C66.8887 94.0561 67.1734 94.3268 67.388 94.5695L66.702 95.2275C66.4967 94.9848 66.2214 94.7048 65.876 94.3875C65.5307 94.0795 65.162 93.7715 64.77 93.4635C64.3874 93.1461 64.0094 92.8615 63.636 92.6095ZM54.942 91.5315C54.9234 91.4661 54.8954 91.3775 54.858 91.2655C54.8207 91.1535 54.7787 91.0415 54.732 90.9295C54.6947 90.8081 54.662 90.7101 54.634 90.6355C54.774 90.5981 54.9234 90.4955 55.082 90.3275C55.25 90.1595 55.4367 89.9448 55.642 89.6835C55.754 89.5528 55.9127 89.3428 56.118 89.0535C56.3327 88.7641 56.5707 88.4188 56.832 88.0175C57.1027 87.6068 57.3734 87.1681 57.644 86.7015C57.9147 86.2348 58.1574 85.7635 58.372 85.2875L59.198 85.7635C58.694 86.7248 58.1294 87.6675 57.504 88.5915C56.8787 89.5061 56.2487 90.3088 55.614 90.9995V91.0275C55.614 91.0275 55.5814 91.0461 55.516 91.0835C55.4507 91.1115 55.3714 91.1535 55.278 91.2095C55.1847 91.2561 55.1054 91.3075 55.04 91.3635C54.9747 91.4195 54.942 91.4755 54.942 91.5315ZM54.942 91.5315L54.858 90.6495L55.334 90.2855L58.89 89.4035C58.89 89.5435 58.8947 89.7021 58.904 89.8795C58.9134 90.0475 58.9274 90.1828 58.946 90.2855C58.1247 90.5095 57.462 90.6915 56.958 90.8315C56.4634 90.9715 56.0807 91.0835 55.81 91.1675C55.5394 91.2515 55.3434 91.3215 55.222 91.3775C55.1007 91.4335 55.0074 91.4848 54.942 91.5315ZM54.844 88.1575C54.8254 88.0921 54.7974 88.0035 54.76 87.8915C54.7227 87.7701 54.6807 87.6488 54.634 87.5275C54.5967 87.4061 54.5594 87.3035 54.522 87.2195C54.6434 87.1915 54.7694 87.1028 54.9 86.9535C55.0307 86.7948 55.1707 86.5941 55.32 86.3515C55.3947 86.2301 55.5067 86.0341 55.656 85.7635C55.8147 85.4928 55.9874 85.1755 56.174 84.8115C56.3607 84.4381 56.5474 84.0415 56.734 83.6215C56.9207 83.1921 57.084 82.7675 57.224 82.3475L58.134 82.7675C57.9007 83.3461 57.6394 83.9295 57.35 84.5175C57.0607 85.0961 56.7527 85.6515 56.426 86.1835C56.0994 86.7061 55.7727 87.1821 55.446 87.6115V87.6395C55.446 87.6395 55.4134 87.6581 55.348 87.6955C55.292 87.7235 55.222 87.7655 55.138 87.8215C55.0634 87.8775 54.9934 87.9381 54.928 88.0035C54.872 88.0595 54.844 88.1108 54.844 88.1575ZM54.844 88.1575L54.816 87.4015L55.306 87.0795L57.728 86.8415C57.7094 86.9628 57.6907 87.1075 57.672 87.2755C57.6627 87.4435 57.658 87.5788 57.658 87.6815C57.1074 87.7468 56.6594 87.8075 56.314 87.8635C55.978 87.9101 55.712 87.9521 55.516 87.9895C55.32 88.0175 55.1707 88.0455 55.068 88.0735C54.9747 88.1015 54.9 88.1295 54.844 88.1575ZM54.592 93.2675C55.1334 93.0901 55.782 92.8661 56.538 92.5955C57.3034 92.3248 58.0827 92.0495 58.876 91.7695L59.044 92.6375C58.3067 92.9175 57.5694 93.1975 56.832 93.4775C56.0947 93.7575 55.4274 94.0141 54.83 94.2475L54.592 93.2675ZM72.106 88.4375H77.804V89.3335H72.106V88.4375ZM70.328 83.5515H74.668V84.4195H70.328V83.5515ZM75.676 83.5515H81.136V84.4195H75.676V83.5515ZM70.58 82.2495L71.574 82.5015C71.3967 83.0055 71.1914 83.5001 70.958 83.9855C70.7247 84.4708 70.4727 84.9281 70.202 85.3575C69.9314 85.7868 69.656 86.1648 69.376 86.4915C69.32 86.4355 69.236 86.3748 69.124 86.3095C69.012 86.2348 68.9 86.1648 68.788 86.0995C68.6854 86.0248 68.592 85.9641 68.508 85.9175C68.9467 85.4695 69.348 84.9188 69.712 84.2655C70.076 83.6121 70.3654 82.9401 70.58 82.2495ZM76.026 82.2495L77.02 82.4875C76.8054 83.0661 76.53 83.6215 76.194 84.1535C75.858 84.6855 75.5034 85.1381 75.13 85.5115C75.074 85.4461 74.99 85.3808 74.878 85.3155C74.7754 85.2408 74.668 85.1708 74.556 85.1055C74.4534 85.0308 74.36 84.9701 74.276 84.9235C74.6494 84.5875 74.99 84.1861 75.298 83.7195C75.606 83.2435 75.8487 82.7535 76.026 82.2495ZM71.266 84.2375L72.176 83.9995C72.372 84.3075 72.5587 84.6481 72.736 85.0215C72.9227 85.3948 73.0487 85.7168 73.114 85.9875L72.176 86.2675C72.1014 85.9968 71.9754 85.6748 71.798 85.3015C71.63 84.9188 71.4527 84.5641 71.266 84.2375ZM77.146 84.2235L78.07 83.9995C78.3407 84.2981 78.5974 84.6388 78.84 85.0215C79.092 85.4041 79.2787 85.7401 79.4 86.0295L78.406 86.2815C78.3034 86.0015 78.1307 85.6701 77.888 85.2875C77.6547 84.8955 77.4074 84.5408 77.146 84.2235ZM75.452 85.7635C75.7787 86.0621 76.1707 86.3608 76.628 86.6595C77.0947 86.9581 77.6034 87.2428 78.154 87.5135C78.7047 87.7748 79.2647 88.0128 79.834 88.2275C80.4034 88.4328 80.954 88.6055 81.486 88.7455C81.374 88.8388 81.2527 88.9741 81.122 89.1515C80.9914 89.3195 80.8887 89.4735 80.814 89.6135C80.2727 89.4548 79.7174 89.2541 79.148 89.0115C78.588 88.7595 78.0327 88.4795 77.482 88.1715C76.9314 87.8635 76.418 87.5368 75.942 87.1915C75.466 86.8461 75.0507 86.4915 74.696 86.1275L75.452 85.7635ZM75.018 85.1055L75.872 85.5395C75.3494 86.1555 74.7194 86.7295 73.982 87.2615C73.254 87.7935 72.47 88.2695 71.63 88.6895C70.7994 89.1001 69.9594 89.4501 69.11 89.7395C69.0447 89.6088 68.9514 89.4641 68.83 89.3055C68.718 89.1375 68.6014 89.0021 68.48 88.8995C69.3014 88.6568 70.1227 88.3488 70.944 87.9755C71.7747 87.5928 72.5447 87.1588 73.254 86.6735C73.9634 86.1881 74.5514 85.6655 75.018 85.1055ZM68.872 93.8975H81.066V94.8355H68.872V93.8975ZM78.616 89.9215L79.568 90.2015C79.3347 90.7055 79.0734 91.2328 78.784 91.7835C78.504 92.3248 78.2194 92.8475 77.93 93.3515C77.6407 93.8461 77.3607 94.2895 77.09 94.6815C77.0154 94.6255 76.922 94.5648 76.81 94.4995C76.7074 94.4341 76.6 94.3688 76.488 94.3035C76.3854 94.2381 76.2874 94.1868 76.194 94.1495C76.4927 93.7855 76.782 93.3701 77.062 92.9035C77.3514 92.4275 77.6267 91.9328 77.888 91.4195C78.1587 90.9061 78.4014 90.4068 78.616 89.9215ZM73.926 90.1595L74.766 89.8515C74.9434 90.1501 75.116 90.4721 75.284 90.8175C75.452 91.1535 75.606 91.4848 75.746 91.8115C75.886 92.1288 75.9887 92.4135 76.054 92.6655L75.158 93.0295C75.0927 92.7775 74.9947 92.4881 74.864 92.1615C74.7334 91.8255 74.584 91.4848 74.416 91.1395C74.2574 90.7848 74.094 90.4581 73.926 90.1595ZM70.454 90.5515L71.294 90.1735C71.5087 90.4535 71.714 90.7568 71.91 91.0835C72.1154 91.4101 72.302 91.7275 72.47 92.0355C72.6474 92.3341 72.7827 92.6048 72.876 92.8475L71.994 93.2815C71.9007 93.0388 71.77 92.7635 71.602 92.4555C71.4434 92.1381 71.2614 91.8161 71.056 91.4895C70.86 91.1535 70.6594 90.8408 70.454 90.5515ZM82.704 83.2295H89.886V84.1955H82.704V83.2295ZM83.11 89.9075H89.48V90.8595H83.11V89.9075ZM85.784 88.2275H86.82V93.7155L85.784 93.8695V88.2275ZM82.55 93.7295C83.1567 93.6548 83.8567 93.5708 84.65 93.4775C85.4527 93.3748 86.3067 93.2628 87.212 93.1415C88.1174 93.0201 89.018 92.8988 89.914 92.7775L89.942 93.7575C89.074 93.8788 88.2014 94.0001 87.324 94.1215C86.456 94.2521 85.6254 94.3688 84.832 94.4715C84.0387 94.5835 83.3294 94.6861 82.704 94.7795L82.55 93.7295ZM82.662 87.0375C83.194 87.0188 83.81 86.9955 84.51 86.9675C85.21 86.9395 85.9567 86.9068 86.75 86.8695C87.5434 86.8321 88.3367 86.7901 89.13 86.7435L89.116 87.6675C88.3507 87.7141 87.5854 87.7608 86.82 87.8075C86.0547 87.8541 85.3267 87.8961 84.636 87.9335C83.9454 87.9708 83.3154 88.0035 82.746 88.0315L82.662 87.0375ZM87.128 85.3435L87.926 84.9095C88.206 85.2268 88.4907 85.5768 88.78 85.9595C89.0694 86.3421 89.3354 86.7155 89.578 87.0795C89.83 87.4435 90.0214 87.7655 90.152 88.0455L89.326 88.5495C89.1954 88.2601 89.0087 87.9288 88.766 87.5555C88.5327 87.1821 88.2714 86.8041 87.982 86.4215C87.702 86.0295 87.4174 85.6701 87.128 85.3435ZM85.112 83.7475L86.26 83.9715C86.1014 84.3821 85.9287 84.8161 85.742 85.2735C85.5554 85.7215 85.3687 86.1601 85.182 86.5895C84.9954 87.0095 84.8134 87.3828 84.636 87.7095L83.726 87.4715C83.894 87.1448 84.062 86.7621 84.23 86.3235C84.4074 85.8755 84.5754 85.4275 84.734 84.9795C84.8927 84.5221 85.0187 84.1115 85.112 83.7475ZM90.488 83.9995H91.51V91.7695H90.488V83.9995ZM93.806 82.7115H94.828V93.7855C94.828 94.1495 94.7814 94.4201 94.688 94.5975C94.5947 94.7841 94.436 94.9195 94.212 95.0035C93.9787 95.0875 93.652 95.1388 93.232 95.1575C92.8214 95.1855 92.3314 95.1995 91.762 95.1995C91.734 95.0595 91.6827 94.8821 91.608 94.6675C91.5427 94.4528 91.468 94.2661 91.384 94.1075C91.86 94.1168 92.294 94.1215 92.686 94.1215C93.078 94.1215 93.344 94.1215 93.484 94.1215C93.6147 94.1121 93.6987 94.0841 93.736 94.0375C93.7827 93.9908 93.806 93.9068 93.806 93.7855V82.7115ZM103.564 88.1575C103.844 89.2028 104.236 90.1361 104.74 90.9575C105.253 91.7695 105.902 92.4555 106.686 93.0155C107.479 93.5661 108.417 93.9768 109.5 94.2475C109.425 94.3221 109.341 94.4155 109.248 94.5275C109.155 94.6395 109.066 94.7561 108.982 94.8775C108.907 95.0081 108.842 95.1248 108.786 95.2275C107.647 94.9008 106.672 94.4295 105.86 93.8135C105.057 93.1975 104.385 92.4368 103.844 91.5315C103.312 90.6168 102.883 89.5668 102.556 88.3815L103.564 88.1575ZM97.264 87.7515H108.786V88.8295H97.264V87.7515ZM96.83 83.3975H109.136V84.4755H96.83V83.3975ZM102.332 83.6915H103.452V86.9675C103.452 87.5555 103.41 88.1575 103.326 88.7735C103.251 89.3801 103.097 89.9868 102.864 90.5935C102.631 91.1908 102.285 91.7695 101.828 92.3295C101.371 92.8895 100.764 93.4168 100.008 93.9115C99.2614 94.4061 98.328 94.8448 97.208 95.2275C97.1707 95.1435 97.1147 95.0408 97.04 94.9195C96.9654 94.8075 96.8814 94.6955 96.788 94.5835C96.704 94.4715 96.6294 94.3828 96.564 94.3175C97.6094 93.9535 98.482 93.5521 99.182 93.1135C99.882 92.6655 100.442 92.1941 100.862 91.6995C101.282 91.1955 101.599 90.6775 101.814 90.1455C102.029 89.6135 102.169 89.0768 102.234 88.5355C102.299 87.9941 102.332 87.4715 102.332 86.9675V83.6915ZM110.536 89.7955H117.424V90.6635H110.536V89.7955ZM110.62 84.8955H117.368V85.7635H110.62V84.8955ZM113.14 88.5775L114.134 88.8015C113.919 89.2495 113.681 89.7301 113.42 90.2435C113.168 90.7475 112.916 91.2375 112.664 91.7135C112.421 92.1801 112.193 92.6001 111.978 92.9735L111.054 92.6515C111.259 92.2968 111.488 91.8861 111.74 91.4195C111.992 90.9528 112.239 90.4721 112.482 89.9775C112.734 89.4735 112.953 89.0068 113.14 88.5775ZM115.24 90.3135L116.22 90.4395C116.108 91.1208 115.921 91.7228 115.66 92.2455C115.408 92.7588 115.072 93.2068 114.652 93.5895C114.241 93.9628 113.737 94.2801 113.14 94.5415C112.552 94.8028 111.852 95.0221 111.04 95.1995C111.003 95.0595 110.937 94.9055 110.844 94.7375C110.76 94.5695 110.671 94.4295 110.578 94.3175C111.558 94.1495 112.365 93.9068 113 93.5895C113.635 93.2628 114.129 92.8335 114.484 92.3015C114.848 91.7601 115.1 91.0975 115.24 90.3135ZM116.122 82.5855L117.032 82.9775C116.827 83.3041 116.612 83.6308 116.388 83.9575C116.173 84.2841 115.968 84.5641 115.772 84.7975L115.058 84.4475C115.235 84.2048 115.427 83.9061 115.632 83.5515C115.837 83.1875 116.001 82.8655 116.122 82.5855ZM113.518 82.3055H114.498V88.7455H113.518V82.3055ZM111.152 82.9775L111.936 82.6555C112.141 82.9355 112.328 83.2435 112.496 83.5795C112.673 83.9155 112.795 84.2095 112.86 84.4615L112.02 84.8255C111.964 84.5828 111.852 84.2888 111.684 83.9435C111.516 83.5888 111.339 83.2668 111.152 82.9775ZM113.546 85.2875L114.246 85.6935C114.022 86.0855 113.733 86.4775 113.378 86.8695C113.033 87.2615 112.655 87.6255 112.244 87.9615C111.843 88.2881 111.441 88.5635 111.04 88.7875C110.984 88.6661 110.9 88.5261 110.788 88.3675C110.676 88.2088 110.569 88.0828 110.466 87.9895C110.858 87.8121 111.25 87.5835 111.642 87.3035C112.034 87.0235 112.398 86.7061 112.734 86.3515C113.07 85.9968 113.341 85.6421 113.546 85.2875ZM114.386 85.7635C114.507 85.8288 114.689 85.9361 114.932 86.0855C115.184 86.2348 115.45 86.3981 115.73 86.5755C116.01 86.7528 116.267 86.9161 116.5 87.0655C116.733 87.2148 116.901 87.3315 117.004 87.4155L116.416 88.1715C116.295 88.0595 116.122 87.9148 115.898 87.7375C115.674 87.5601 115.431 87.3735 115.17 87.1775C114.918 86.9815 114.675 86.7948 114.442 86.6175C114.209 86.4401 114.017 86.3048 113.868 86.2115L114.386 85.7635ZM118.446 84.8955H123.43V85.8755H118.446V84.8955ZM118.796 82.3055L119.846 82.4595C119.697 83.3741 119.501 84.2561 119.258 85.1055C119.025 85.9455 118.749 86.7295 118.432 87.4575C118.115 88.1761 117.751 88.8061 117.34 89.3475C117.284 89.2821 117.205 89.2075 117.102 89.1235C116.999 89.0301 116.887 88.9415 116.766 88.8575C116.654 88.7641 116.561 88.6895 116.486 88.6335C116.878 88.1388 117.223 87.5601 117.522 86.8975C117.821 86.2255 118.073 85.5021 118.278 84.7275C118.493 83.9435 118.665 83.1361 118.796 82.3055ZM121.54 85.4555L122.618 85.5675C122.394 87.1821 122.058 88.6008 121.61 89.8235C121.171 91.0461 120.574 92.1008 119.818 92.9875C119.071 93.8741 118.11 94.6255 116.934 95.2415C116.897 95.1481 116.841 95.0408 116.766 94.9195C116.691 94.8075 116.612 94.6908 116.528 94.5695C116.453 94.4575 116.379 94.3641 116.304 94.2895C117.415 93.7668 118.32 93.1041 119.02 92.3015C119.72 91.4895 120.266 90.5188 120.658 89.3895C121.059 88.2508 121.353 86.9395 121.54 85.4555ZM119.006 85.7635C119.211 87.0515 119.501 88.2601 119.874 89.3895C120.257 90.5095 120.751 91.4941 121.358 92.3435C121.965 93.1835 122.702 93.8321 123.57 94.2895C123.486 94.3641 123.393 94.4528 123.29 94.5555C123.197 94.6581 123.108 94.7655 123.024 94.8775C122.94 94.9895 122.87 95.0968 122.814 95.1995C121.909 94.6581 121.143 93.9348 120.518 93.0295C119.893 92.1148 119.384 91.0555 118.992 89.8515C118.6 88.6475 118.287 87.3361 118.054 85.9175L119.006 85.7635ZM111.894 92.4695L112.44 91.7555C113 91.9608 113.555 92.1988 114.106 92.4695C114.657 92.7308 115.17 93.0015 115.646 93.2815C116.122 93.5615 116.528 93.8321 116.864 94.0935L116.136 94.8495C115.819 94.5788 115.431 94.3035 114.974 94.0235C114.517 93.7435 114.022 93.4681 113.49 93.1975C112.967 92.9268 112.435 92.6841 111.894 92.4695Z" fill="#0277BD"/>
<path d="M199.543 57.9867C199.543 50.2547 205.811 43.9867 213.543 43.9867H325.502C333.234 43.9867 339.502 50.2547 339.502 57.9867V77.9667C339.502 85.6987 333.234 91.9667 325.502 91.9667H213.543C205.811 91.9667 199.543 85.6987 199.543 77.9667V57.9867Z" fill="#4FC3F7"/>
<g clip-path="url(#clip0_4_2185)">
<path d="M240.192 67.9767V76.3065H226.865V67.9767" stroke="white" stroke-width="1.66597" stroke-linecap="round" stroke-linejoin="round"/>
<path d="M241.858 63.8118H225.199V67.9767H241.858V63.8118Z" stroke="white" stroke-width="1.66597" stroke-linecap="round" stroke-linejoin="round"/>
<path d="M233.528 76.3066V63.8118" stroke="white" stroke-width="1.66597" stroke-linecap="round" stroke-linejoin="round"/>
<path d="M233.528 63.8118H229.78C229.228 63.8118 228.698 63.5924 228.307 63.2018C227.917 62.8113 227.697 62.2816 227.697 61.7293C227.697 61.177 227.917 60.6473 228.307 60.2568C228.698 59.8663 229.228 59.6469 229.78 59.6469C232.695 59.6469 233.528 63.8118 233.528 63.8118Z" stroke="white" stroke-width="1.66597" stroke-linecap="round" stroke-linejoin="round"/>
<path d="M233.528 63.8118H237.277C237.829 63.8118 238.359 63.5924 238.749 63.2018C239.14 62.8113 239.359 62.2816 239.359 61.7293C239.359 61.177 239.14 60.6473 238.749 60.2568C238.359 59.8663 237.829 59.6469 237.277 59.6469C234.361 59.6469 233.528 63.8118 233.528 63.8118Z" stroke="white" stroke-width="1.66597" stroke-linecap="round" stroke-linejoin="round"/>
</g>
<path d="M252.897 61.8015H266.257V62.9855H252.897V61.8015ZM252.353 71.4815H266.705V72.6655H252.353V71.4815ZM258.865 58.6495H260.113V62.4575H258.865V58.6495ZM262.673 63.7215L264.049 63.9775C263.878 64.6281 263.692 65.3161 263.489 66.0415C263.286 66.7561 263.078 67.4708 262.865 68.1855C262.652 68.8895 262.433 69.5615 262.209 70.2015C261.996 70.8415 261.788 71.4175 261.585 71.9295L260.433 71.6415C260.636 71.1295 260.844 70.5481 261.057 69.8975C261.27 69.2361 261.473 68.5481 261.665 67.8335C261.868 67.1081 262.054 66.3935 262.225 65.6895C262.406 64.9855 262.556 64.3295 262.673 63.7215ZM255.041 64.1055L256.177 63.8175C256.465 64.5215 256.716 65.2681 256.929 66.0575C257.153 66.8468 257.334 67.6148 257.473 68.3615C257.622 69.1081 257.718 69.7801 257.761 70.3775L256.529 70.6815C256.508 70.0948 256.428 69.4228 256.289 68.6655C256.15 67.9081 255.974 67.1348 255.761 66.3455C255.548 65.5455 255.308 64.7988 255.041 64.1055ZM269.857 62.6655H274.545V63.7375H269.857V62.6655ZM269.265 59.5135H270.417V71.4495L269.265 71.6895V59.5135ZM268.145 71.3215C268.646 71.1935 269.222 71.0441 269.873 70.8735C270.534 70.6921 271.233 70.5001 271.969 70.2975C272.716 70.0841 273.462 69.8708 274.209 69.6575L274.353 70.7935C273.681 71.0068 272.998 71.2201 272.305 71.4335C271.612 71.6361 270.945 71.8335 270.305 72.0255C269.665 72.2175 269.078 72.3935 268.545 72.5535L268.145 71.3215ZM272.193 68.0735L273.169 67.5935C273.532 68.0521 273.889 68.5481 274.241 69.0815C274.593 69.6041 274.908 70.1215 275.185 70.6335C275.473 71.1455 275.686 71.6041 275.825 72.0095L274.769 72.5535C274.63 72.1481 274.422 71.6895 274.145 71.1775C273.878 70.6548 273.574 70.1215 273.233 69.5775C272.902 69.0335 272.556 68.5321 272.193 68.0735ZM269.809 59.5135H275.233V66.8415H269.809V65.7215H274.097V60.6335H269.809V59.5135ZM281.025 59.5295H282.257V69.2895C282.257 69.6308 282.214 69.9081 282.129 70.1215C282.054 70.3348 281.894 70.5001 281.649 70.6175C281.414 70.7241 281.1 70.7935 280.705 70.8255C280.321 70.8575 279.852 70.8735 279.297 70.8735C279.286 70.7455 279.254 70.6015 279.201 70.4415C279.158 70.2815 279.105 70.1215 279.041 69.9615C278.988 69.8015 278.929 69.6628 278.865 69.5455C279.292 69.5668 279.676 69.5775 280.017 69.5775C280.369 69.5775 280.609 69.5721 280.737 69.5615C280.854 69.5615 280.929 69.5401 280.961 69.4975C281.004 69.4548 281.025 69.3748 281.025 69.2575V59.5295ZM276.433 59.5295H281.713V60.7295H277.649V73.3695H276.433V59.5295ZM288.225 65.6415H294.737V66.6655H288.225V65.6415ZM286.193 60.0575H291.153V61.0495H286.193V60.0575ZM292.305 60.0575H298.545V61.0495H292.305V60.0575ZM286.481 58.5695L287.617 58.8575C287.414 59.4335 287.18 59.9988 286.913 60.5535C286.646 61.1081 286.358 61.6308 286.049 62.1215C285.74 62.6121 285.425 63.0441 285.105 63.4175C285.041 63.3535 284.945 63.2841 284.817 63.2095C284.689 63.1241 284.561 63.0441 284.433 62.9695C284.316 62.8841 284.209 62.8148 284.113 62.7615C284.614 62.2495 285.073 61.6201 285.489 60.8735C285.905 60.1268 286.236 59.3588 286.481 58.5695ZM292.705 58.5695L293.841 58.8415C293.596 59.5028 293.281 60.1375 292.897 60.7455C292.513 61.3535 292.108 61.8708 291.681 62.2975C291.617 62.2228 291.521 62.1481 291.393 62.0735C291.276 61.9881 291.153 61.9081 291.025 61.8335C290.908 61.7481 290.801 61.6788 290.705 61.6255C291.132 61.2415 291.521 60.7828 291.873 60.2495C292.225 59.7055 292.502 59.1455 292.705 58.5695ZM287.265 60.8415L288.305 60.5695C288.529 60.9215 288.742 61.3108 288.945 61.7375C289.158 62.1641 289.302 62.5321 289.377 62.8415L288.305 63.1615C288.22 62.8521 288.076 62.4841 287.873 62.0575C287.681 61.6201 287.478 61.2148 287.265 60.8415ZM293.985 60.8255L295.041 60.5695C295.35 60.9108 295.644 61.3001 295.921 61.7375C296.209 62.1748 296.422 62.5588 296.561 62.8895L295.425 63.1775C295.308 62.8575 295.11 62.4788 294.833 62.0415C294.566 61.5935 294.284 61.1881 293.985 60.8255ZM292.049 62.5855C292.422 62.9268 292.87 63.2681 293.393 63.6095C293.926 63.9508 294.508 64.2761 295.137 64.5855C295.766 64.8841 296.406 65.1561 297.057 65.4015C297.708 65.6361 298.337 65.8335 298.945 65.9935C298.817 66.1001 298.678 66.2548 298.529 66.4575C298.38 66.6495 298.262 66.8255 298.177 66.9855C297.558 66.8041 296.924 66.5748 296.273 66.2975C295.633 66.0095 294.998 65.6895 294.369 65.3375C293.74 64.9855 293.153 64.6121 292.609 64.2175C292.065 63.8228 291.59 63.4175 291.185 63.0015L292.049 62.5855ZM291.553 61.8335L292.529 62.3295C291.932 63.0335 291.212 63.6895 290.369 64.2975C289.537 64.9055 288.641 65.4495 287.681 65.9295C286.732 66.3988 285.772 66.7988 284.801 67.1295C284.726 66.9801 284.62 66.8148 284.481 66.6335C284.353 66.4415 284.22 66.2868 284.081 66.1695C285.02 65.8921 285.958 65.5401 286.897 65.1135C287.846 64.6761 288.726 64.1801 289.537 63.6255C290.348 63.0708 291.02 62.4735 291.553 61.8335ZM284.529 71.8815H298.465V72.9535H284.529V71.8815ZM295.665 67.3375L296.753 67.6575C296.486 68.2335 296.188 68.8361 295.857 69.4655C295.537 70.0841 295.212 70.6815 294.881 71.2575C294.55 71.8228 294.23 72.3295 293.921 72.7775C293.836 72.7135 293.729 72.6441 293.601 72.5695C293.484 72.4948 293.361 72.4201 293.233 72.3455C293.116 72.2708 293.004 72.2121 292.897 72.1695C293.238 71.7535 293.569 71.2788 293.889 70.7455C294.22 70.2015 294.534 69.6361 294.833 69.0495C295.142 68.4628 295.42 67.8921 295.665 67.3375ZM290.305 67.6095L291.265 67.2575C291.468 67.5988 291.665 67.9668 291.857 68.3615C292.049 68.7455 292.225 69.1241 292.385 69.4975C292.545 69.8601 292.662 70.1855 292.737 70.4735L291.713 70.8895C291.638 70.6015 291.526 70.2708 291.377 69.8975C291.228 69.5135 291.057 69.1241 290.865 68.7295C290.684 68.3241 290.497 67.9508 290.305 67.6095ZM286.337 68.0575L287.297 67.6255C287.542 67.9455 287.777 68.2921 288.001 68.6655C288.236 69.0388 288.449 69.4015 288.641 69.7535C288.844 70.0948 288.998 70.4041 289.105 70.6815L288.097 71.1775C287.99 70.9001 287.841 70.5855 287.649 70.2335C287.468 69.8708 287.26 69.5028 287.025 69.1295C286.801 68.7455 286.572 68.3881 286.337 68.0575ZM300.337 59.6895H308.545V60.7935H300.337V59.6895ZM300.801 67.3215H308.081V68.4095H300.801V67.3215ZM303.857 65.4015H305.041V71.6735L303.857 71.8495V65.4015ZM300.161 71.6895C300.854 71.6041 301.654 71.5081 302.561 71.4015C303.478 71.2841 304.454 71.1561 305.489 71.0175C306.524 70.8788 307.553 70.7401 308.577 70.6015L308.609 71.7215C307.617 71.8601 306.62 71.9988 305.617 72.1375C304.625 72.2868 303.676 72.4201 302.769 72.5375C301.862 72.6655 301.052 72.7828 300.337 72.8895L300.161 71.6895ZM300.289 64.0415C300.897 64.0201 301.601 63.9935 302.401 63.9615C303.201 63.9295 304.054 63.8921 304.961 63.8495C305.868 63.8068 306.774 63.7588 307.681 63.7055L307.665 64.7615C306.79 64.8148 305.916 64.8681 305.041 64.9215C304.166 64.9748 303.334 65.0228 302.545 65.0655C301.756 65.1081 301.036 65.1455 300.385 65.1775L300.289 64.0415ZM305.393 62.1055L306.305 61.6095C306.625 61.9721 306.95 62.3721 307.281 62.8095C307.612 63.2468 307.916 63.6735 308.193 64.0895C308.481 64.5055 308.7 64.8735 308.849 65.1935L307.905 65.7695C307.756 65.4388 307.542 65.0601 307.265 64.6335C306.998 64.2068 306.7 63.7748 306.369 63.3375C306.049 62.8895 305.724 62.4788 305.393 62.1055ZM303.089 60.2815L304.401 60.5375C304.22 61.0068 304.022 61.5028 303.809 62.0255C303.596 62.5375 303.382 63.0388 303.169 63.5295C302.956 64.0095 302.748 64.4361 302.545 64.8095L301.505 64.5375C301.697 64.1641 301.889 63.7268 302.081 63.2255C302.284 62.7135 302.476 62.2015 302.657 61.6895C302.838 61.1668 302.982 60.6975 303.089 60.2815ZM309.233 60.5695H310.401V69.4495H309.233V60.5695ZM313.025 59.0975H314.193V71.7535C314.193 72.1695 314.14 72.4788 314.033 72.6815C313.926 72.8948 313.745 73.0495 313.489 73.1455C313.222 73.2415 312.849 73.3001 312.369 73.3215C311.9 73.3535 311.34 73.3695 310.689 73.3695C310.657 73.2095 310.598 73.0068 310.513 72.7615C310.438 72.5161 310.353 72.3028 310.257 72.1215C310.801 72.1321 311.297 72.1375 311.745 72.1375C312.193 72.1375 312.497 72.1375 312.657 72.1375C312.806 72.1268 312.902 72.0948 312.945 72.0415C312.998 71.9881 313.025 71.8921 313.025 71.7535V59.0975Z" fill="white"/>
<path d="M39.99 137.953C39.99 130.221 46.258 123.953 53.99 123.953H325.502C333.234 123.953 339.502 130.221 339.502 137.953V165.93C339.502 173.662 333.234 179.93 325.502 179.93H53.99C46.258 179.93 39.99 173.662 39.99 165.93V137.953Z" fill="white"/>
<path d="M63.9034 143.766C63.5834 144.257 63.1834 144.774 62.7034 145.318C62.234 145.862 61.7114 146.406 61.1354 146.95C60.5594 147.494 59.946 148.017 59.2954 148.518C58.6447 149.02 57.978 149.473 57.2954 149.878C57.242 149.782 57.1727 149.681 57.0874 149.574C57.002 149.457 56.9114 149.34 56.8154 149.222C56.7194 149.105 56.6287 149.009 56.5434 148.934C57.2367 148.54 57.914 148.086 58.5754 147.574C59.2367 147.062 59.8607 146.524 60.4474 145.958C61.0447 145.382 61.5834 144.806 62.0634 144.23C62.5434 143.654 62.938 143.1 63.2474 142.566H64.4474C64.8634 143.164 65.3434 143.761 65.8874 144.358C66.4314 144.945 67.0127 145.51 67.6314 146.054C68.2607 146.598 68.9007 147.105 69.5514 147.574C70.2127 148.033 70.8527 148.428 71.4714 148.758C71.322 148.897 71.178 149.062 71.0394 149.254C70.9007 149.436 70.778 149.617 70.6714 149.798C70.0527 149.425 69.418 148.998 68.7674 148.518C68.1274 148.038 67.5034 147.532 66.8954 146.998C66.2874 146.454 65.7274 145.91 65.2154 145.366C64.7034 144.812 64.266 144.278 63.9034 143.766ZM60.4794 147.67H67.4874V148.79H60.4794V147.67ZM58.4154 150.806H68.1274V151.958H58.4154V150.806ZM67.8874 150.806H68.0634L68.2874 150.742L69.2314 151.03C68.9754 151.617 68.6767 152.284 68.3354 153.03C68.0047 153.766 67.6527 154.513 67.2794 155.27C66.9167 156.017 66.5647 156.726 66.2234 157.398L64.9754 157.046C65.2314 156.556 65.498 156.033 65.7754 155.478C66.0527 154.913 66.3247 154.353 66.5914 153.798C66.858 153.244 67.1034 152.721 67.3274 152.23C67.5514 151.74 67.738 151.318 67.8874 150.966V150.806ZM74.7994 143.702H85.2954V157.078H84.0154V144.902H76.0314V157.158H74.7994V143.702ZM75.6314 149.238H84.5594V150.422H75.6314V149.238ZM75.5994 154.918H84.5754V156.118H75.5994V154.918ZM92.6874 149.606H99.1994V150.63H92.6874V149.606ZM90.6554 144.022H95.6154V145.014H90.6554V144.022ZM96.7674 144.022H103.007V145.014H96.7674V144.022ZM90.9434 142.534L92.0794 142.822C91.8767 143.398 91.642 143.964 91.3754 144.518C91.1087 145.073 90.8207 145.596 90.5114 146.086C90.202 146.577 89.8874 147.009 89.5674 147.382C89.5034 147.318 89.4074 147.249 89.2794 147.174C89.1514 147.089 89.0234 147.009 88.8954 146.934C88.778 146.849 88.6714 146.78 88.5754 146.726C89.0767 146.214 89.5354 145.585 89.9514 144.838C90.3674 144.092 90.698 143.324 90.9434 142.534ZM97.1674 142.534L98.3034 142.806C98.058 143.468 97.7434 144.102 97.3594 144.71C96.9754 145.318 96.57 145.836 96.1434 146.262C96.0794 146.188 95.9834 146.113 95.8554 146.038C95.738 145.953 95.6154 145.873 95.4874 145.798C95.37 145.713 95.2634 145.644 95.1674 145.59C95.594 145.206 95.9834 144.748 96.3354 144.214C96.6874 143.67 96.9647 143.11 97.1674 142.534ZM91.7274 144.806L92.7674 144.534C92.9914 144.886 93.2047 145.276 93.4074 145.702C93.6207 146.129 93.7647 146.497 93.8394 146.806L92.7674 147.126C92.682 146.817 92.538 146.449 92.3354 146.022C92.1434 145.585 91.9407 145.18 91.7274 144.806ZM98.4474 144.79L99.5034 144.534C99.8127 144.876 100.106 145.265 100.383 145.702C100.671 146.14 100.885 146.524 101.023 146.854L99.8874 147.142C99.77 146.822 99.5727 146.444 99.2954 146.006C99.0287 145.558 98.746 145.153 98.4474 144.79ZM96.5114 146.55C96.8847 146.892 97.3327 147.233 97.8554 147.574C98.3887 147.916 98.97 148.241 99.5994 148.55C100.229 148.849 100.869 149.121 101.519 149.366C102.17 149.601 102.799 149.798 103.407 149.958C103.279 150.065 103.141 150.22 102.991 150.422C102.842 150.614 102.725 150.79 102.639 150.95C102.021 150.769 101.386 150.54 100.735 150.262C100.095 149.974 99.4607 149.654 98.8314 149.302C98.202 148.95 97.6154 148.577 97.0714 148.182C96.5274 147.788 96.0527 147.382 95.6474 146.966L96.5114 146.55ZM96.0154 145.798L96.9914 146.294C96.394 146.998 95.674 147.654 94.8314 148.262C93.9994 148.87 93.1034 149.414 92.1434 149.894C91.194 150.364 90.234 150.764 89.2634 151.094C89.1887 150.945 89.082 150.78 88.9434 150.598C88.8154 150.406 88.682 150.252 88.5434 150.134C89.482 149.857 90.4207 149.505 91.3594 149.078C92.3087 148.641 93.1887 148.145 93.9994 147.59C94.81 147.036 95.482 146.438 96.0154 145.798ZM88.9914 155.846H102.927V156.918H88.9914V155.846ZM100.127 151.302L101.215 151.622C100.949 152.198 100.65 152.801 100.319 153.43C99.9994 154.049 99.674 154.646 99.3434 155.222C99.0127 155.788 98.6927 156.294 98.3834 156.742C98.298 156.678 98.1914 156.609 98.0634 156.534C97.946 156.46 97.8234 156.385 97.6954 156.31C97.578 156.236 97.466 156.177 97.3594 156.134C97.7007 155.718 98.0314 155.244 98.3514 154.71C98.682 154.166 98.9967 153.601 99.2954 153.014C99.6047 152.428 99.882 151.857 100.127 151.302ZM94.7674 151.574L95.7274 151.222C95.93 151.564 96.1274 151.932 96.3194 152.326C96.5114 152.71 96.6874 153.089 96.8474 153.462C97.0074 153.825 97.1247 154.15 97.1994 154.438L96.1754 154.854C96.1007 154.566 95.9887 154.236 95.8394 153.862C95.69 153.478 95.5194 153.089 95.3274 152.694C95.146 152.289 94.9594 151.916 94.7674 151.574ZM90.7994 152.022L91.7594 151.59C92.0047 151.91 92.2394 152.257 92.4634 152.63C92.698 153.004 92.9114 153.366 93.1034 153.718C93.306 154.06 93.4607 154.369 93.5674 154.646L92.5594 155.142C92.4527 154.865 92.3034 154.55 92.1114 154.198C91.93 153.836 91.722 153.468 91.4874 153.094C91.2634 152.71 91.034 152.353 90.7994 152.022ZM104.799 143.654H113.007V144.758H104.799V143.654ZM105.263 151.286H112.543V152.374H105.263V151.286ZM108.319 149.366H109.503V155.638L108.319 155.814V149.366ZM104.623 155.654C105.317 155.569 106.117 155.473 107.023 155.366C107.941 155.249 108.917 155.121 109.951 154.982C110.986 154.844 112.015 154.705 113.039 154.566L113.071 155.686C112.079 155.825 111.082 155.964 110.079 156.102C109.087 156.252 108.138 156.385 107.231 156.502C106.325 156.63 105.514 156.748 104.799 156.854L104.623 155.654ZM104.751 148.006C105.359 147.985 106.063 147.958 106.863 147.926C107.663 147.894 108.517 147.857 109.423 147.814C110.33 147.772 111.237 147.724 112.143 147.67L112.127 148.726C111.253 148.78 110.378 148.833 109.503 148.886C108.629 148.94 107.797 148.988 107.007 149.03C106.218 149.073 105.498 149.11 104.847 149.142L104.751 148.006ZM109.855 146.07L110.767 145.574C111.087 145.937 111.413 146.337 111.743 146.774C112.074 147.212 112.378 147.638 112.655 148.054C112.943 148.47 113.162 148.838 113.311 149.158L112.367 149.734C112.218 149.404 112.005 149.025 111.727 148.598C111.461 148.172 111.162 147.74 110.831 147.302C110.511 146.854 110.186 146.444 109.855 146.07ZM107.551 144.246L108.863 144.502C108.682 144.972 108.485 145.468 108.271 145.99C108.058 146.502 107.845 147.004 107.631 147.494C107.418 147.974 107.21 148.401 107.007 148.774L105.967 148.502C106.159 148.129 106.351 147.692 106.543 147.19C106.746 146.678 106.938 146.166 107.119 145.654C107.301 145.132 107.445 144.662 107.551 144.246ZM113.695 144.534H114.863V153.414H113.695V144.534ZM117.487 143.062H118.655V155.718C118.655 156.134 118.602 156.444 118.495 156.646C118.389 156.86 118.207 157.014 117.951 157.11C117.685 157.206 117.311 157.265 116.831 157.286C116.362 157.318 115.802 157.334 115.151 157.334C115.119 157.174 115.061 156.972 114.975 156.726C114.901 156.481 114.815 156.268 114.719 156.086C115.263 156.097 115.759 156.102 116.207 156.102C116.655 156.102 116.959 156.102 117.119 156.102C117.269 156.092 117.365 156.06 117.407 156.006C117.461 155.953 117.487 155.857 117.487 155.718V143.062ZM120.943 151.67H134.991V152.758H120.943V151.67ZM127.407 150.454H128.671C128.575 151.169 128.431 151.836 128.239 152.454C128.058 153.062 127.802 153.622 127.471 154.134C127.151 154.646 126.719 155.11 126.175 155.526C125.642 155.932 124.97 156.284 124.159 156.582C123.359 156.892 122.389 157.142 121.247 157.334C121.205 157.185 121.125 157.009 121.007 156.806C120.901 156.614 120.789 156.46 120.671 156.342C121.738 156.172 122.645 155.958 123.391 155.702C124.138 155.436 124.751 155.126 125.231 154.774C125.722 154.422 126.111 154.028 126.399 153.59C126.687 153.153 126.906 152.673 127.055 152.15C127.205 151.628 127.322 151.062 127.407 150.454ZM128.783 152.422C129.274 153.542 130.069 154.401 131.167 154.998C132.277 155.596 133.674 155.985 135.359 156.166C135.274 156.252 135.183 156.358 135.087 156.486C134.991 156.614 134.901 156.742 134.815 156.87C134.741 156.998 134.677 157.121 134.623 157.238C133.45 157.057 132.41 156.78 131.503 156.406C130.607 156.033 129.845 155.542 129.215 154.934C128.586 154.316 128.085 153.564 127.711 152.678L128.783 152.422ZM121.167 143.926L122.095 143.462C122.405 143.825 122.703 144.241 122.991 144.71C123.29 145.169 123.503 145.569 123.631 145.91L122.639 146.47C122.522 146.118 122.319 145.702 122.031 145.222C121.754 144.742 121.466 144.31 121.167 143.926ZM124.447 142.614H125.615V150.47H124.447V142.614ZM120.735 148.486C121.237 148.262 121.845 147.974 122.559 147.622C123.274 147.26 124.01 146.892 124.767 146.518L125.071 147.478C124.421 147.83 123.759 148.188 123.087 148.55C122.426 148.913 121.813 149.238 121.247 149.526L120.735 148.486ZM128.207 146.374L129.103 145.83C129.37 146.044 129.647 146.289 129.935 146.566C130.234 146.833 130.511 147.1 130.767 147.366C131.023 147.633 131.231 147.873 131.391 148.086L130.463 148.678C130.314 148.454 130.117 148.209 129.871 147.942C129.626 147.676 129.359 147.404 129.071 147.126C128.783 146.849 128.495 146.598 128.207 146.374ZM128.959 143.974H134.127V144.998H128.959V143.974ZM129.535 142.566L130.687 142.934C130.314 143.66 129.791 144.364 129.119 145.046C128.447 145.718 127.733 146.268 126.975 146.694C126.922 146.62 126.853 146.529 126.767 146.422C126.682 146.305 126.591 146.193 126.495 146.086C126.399 145.98 126.314 145.894 126.239 145.83C126.709 145.574 127.157 145.27 127.583 144.918C128.021 144.556 128.41 144.172 128.751 143.766C129.093 143.361 129.354 142.961 129.535 142.566ZM133.919 143.974H134.175L134.399 143.926L135.103 144.278C134.677 145.569 134.053 146.625 133.231 147.446C132.41 148.268 131.439 148.913 130.319 149.382C129.199 149.852 127.978 150.204 126.655 150.438C126.623 150.342 126.57 150.23 126.495 150.102C126.421 149.974 126.341 149.852 126.255 149.734C126.17 149.606 126.09 149.505 126.015 149.43C127.295 149.238 128.463 148.945 129.519 148.55C130.586 148.156 131.498 147.606 132.255 146.902C133.013 146.188 133.567 145.276 133.919 144.166V143.974ZM144.975 146.598H150.223V147.718H144.975V146.598ZM138.687 146.374H144.559V147.446H138.687V146.374ZM138.175 143.526H145.103V144.63H138.175V143.526ZM149.807 146.598H150.911C150.911 146.598 150.911 146.636 150.911 146.71C150.911 146.785 150.911 146.87 150.911 146.966C150.911 147.052 150.911 147.126 150.911 147.19C150.869 148.854 150.826 150.257 150.783 151.398C150.741 152.54 150.687 153.473 150.623 154.198C150.57 154.924 150.501 155.484 150.415 155.878C150.33 156.262 150.229 156.54 150.111 156.71C149.962 156.913 149.807 157.052 149.647 157.126C149.487 157.212 149.29 157.27 149.055 157.302C148.842 157.324 148.565 157.329 148.223 157.318C147.893 157.318 147.546 157.313 147.183 157.302C147.173 157.132 147.141 156.945 147.087 156.742C147.034 156.54 146.954 156.358 146.847 156.198C147.231 156.23 147.578 156.246 147.887 156.246C148.197 156.257 148.421 156.262 148.559 156.262C148.687 156.262 148.789 156.246 148.863 156.214C148.949 156.182 149.029 156.118 149.103 156.022C149.199 155.894 149.285 155.649 149.359 155.286C149.434 154.913 149.498 154.374 149.551 153.67C149.605 152.966 149.653 152.06 149.695 150.95C149.738 149.83 149.775 148.47 149.807 146.87V146.598ZM140.863 149.366H143.711V150.406H140.863V149.366ZM143.247 149.366H144.303C144.303 149.366 144.298 149.398 144.287 149.462C144.287 149.526 144.287 149.596 144.287 149.67C144.287 149.745 144.287 149.809 144.287 149.862C144.245 151.004 144.197 151.969 144.143 152.758C144.09 153.548 144.037 154.198 143.983 154.71C143.93 155.212 143.866 155.606 143.791 155.894C143.717 156.172 143.626 156.374 143.519 156.502C143.402 156.662 143.269 156.774 143.119 156.838C142.981 156.902 142.815 156.945 142.623 156.966C142.453 156.988 142.229 156.998 141.951 156.998C141.674 156.998 141.386 156.988 141.087 156.966C141.077 156.817 141.045 156.646 140.991 156.454C140.949 156.262 140.885 156.102 140.799 155.974C141.098 155.996 141.37 156.012 141.615 156.022C141.861 156.033 142.037 156.033 142.143 156.022C142.25 156.033 142.341 156.028 142.415 156.006C142.49 155.974 142.554 155.921 142.607 155.846C142.703 155.718 142.789 155.441 142.863 155.014C142.949 154.577 143.018 153.926 143.071 153.062C143.135 152.188 143.194 151.025 143.247 149.574V149.366ZM146.815 142.87H147.935C147.925 144.364 147.898 145.82 147.855 147.238C147.813 148.646 147.695 149.98 147.503 151.238C147.322 152.486 147.023 153.633 146.607 154.678C146.202 155.713 145.626 156.609 144.879 157.366C144.783 157.238 144.645 157.094 144.463 156.934C144.293 156.774 144.133 156.657 143.983 156.582C144.559 156.017 145.023 155.366 145.375 154.63C145.738 153.894 146.015 153.084 146.207 152.198C146.399 151.302 146.538 150.353 146.623 149.35C146.709 148.348 146.762 147.302 146.783 146.214C146.805 145.116 146.815 144.001 146.815 142.87ZM140.447 146.95H141.551C141.541 148.049 141.503 149.11 141.439 150.134C141.375 151.148 141.263 152.108 141.103 153.014C140.943 153.91 140.703 154.732 140.383 155.478C140.074 156.225 139.653 156.876 139.119 157.43C139.045 157.302 138.922 157.158 138.751 156.998C138.591 156.838 138.437 156.721 138.287 156.646C138.778 156.145 139.162 155.553 139.439 154.87C139.727 154.177 139.941 153.409 140.079 152.566C140.218 151.724 140.309 150.833 140.351 149.894C140.394 148.945 140.426 147.964 140.447 146.95ZM137.599 143.526H138.703V149.366C138.703 149.953 138.687 150.593 138.655 151.286C138.634 151.98 138.581 152.684 138.495 153.398C138.41 154.102 138.282 154.79 138.111 155.462C137.951 156.124 137.733 156.726 137.455 157.27C137.391 157.206 137.295 157.137 137.167 157.062C137.05 156.988 136.927 156.913 136.799 156.838C136.682 156.774 136.575 156.726 136.479 156.694C136.821 156.001 137.071 155.228 137.231 154.374C137.391 153.521 137.493 152.662 137.535 151.798C137.578 150.924 137.599 150.118 137.599 149.382V143.526Z" fill="#0277BD"/>
<g clip-path="url(#clip1_4_2185)">
<path d="M243.492 145.82C243.521 145.667 243.602 145.529 243.722 145.43C243.841 145.331 243.992 145.276 244.147 145.276C244.303 145.276 244.454 145.331 244.573 145.43C244.693 145.529 244.774 145.667 244.802 145.82L245.503 149.524C245.553 149.787 245.681 150.029 245.87 150.219C246.06 150.408 246.302 150.536 246.565 150.586L250.269 151.287C250.422 151.315 250.56 151.396 250.659 151.516C250.758 151.635 250.813 151.786 250.813 151.942C250.813 152.097 250.758 152.248 250.659 152.367C250.56 152.487 250.422 152.568 250.269 152.597L246.565 153.297C246.302 153.347 246.06 153.475 245.87 153.664C245.681 153.854 245.553 154.096 245.503 154.359L244.802 158.063C244.774 158.216 244.693 158.354 244.573 158.453C244.454 158.553 244.303 158.607 244.147 158.607C243.992 158.607 243.841 158.553 243.722 158.453C243.602 158.354 243.521 158.216 243.492 158.063L242.792 154.359C242.742 154.096 242.614 153.854 242.425 153.664C242.235 153.475 241.993 153.347 241.73 153.297L238.026 152.597C237.873 152.568 237.735 152.487 237.636 152.367C237.536 152.248 237.482 152.097 237.482 151.942C237.482 151.786 237.536 151.635 237.636 151.516C237.735 151.396 237.873 151.315 238.026 151.287L241.73 150.586C241.993 150.536 242.235 150.408 242.425 150.219C242.614 150.029 242.742 149.787 242.792 149.524L243.492 145.82Z" stroke="#29B6F6" stroke-width="1.33278" stroke-linecap="round" stroke-linejoin="round"/>
<path d="M249.479 145.278V147.943" stroke="#29B6F6" stroke-width="1.33278" stroke-linecap="round" stroke-linejoin="round"/>
<path d="M250.811 146.61H248.146" stroke="#29B6F6" stroke-width="1.33278" stroke-linecap="round" stroke-linejoin="round"/>
<path d="M238.816 158.605C239.552 158.605 240.149 158.009 240.149 157.273C240.149 156.537 239.552 155.94 238.816 155.94C238.08 155.94 237.483 156.537 237.483 157.273C237.483 158.009 238.08 158.605 238.816 158.605Z" stroke="#29B6F6" stroke-width="1.33278" stroke-linecap="round" stroke-linejoin="round"/>
</g>
<path d="M260.15 154.203V151.062H257.033V149.75H260.15V146.633H261.478V149.75H264.596V151.062H261.478V154.203H260.15ZM271.447 156.054H270.041V147.094C269.702 147.416 269.257 147.739 268.705 148.062C268.158 148.385 267.666 148.627 267.228 148.789V147.429C268.015 147.06 268.702 146.612 269.291 146.086C269.879 145.56 270.296 145.049 270.541 144.554H271.447V156.054ZM275.056 150.406C275.056 149.052 275.195 147.963 275.471 147.14C275.752 146.312 276.166 145.674 276.713 145.226C277.265 144.778 277.958 144.554 278.791 144.554C279.405 144.554 279.945 144.679 280.408 144.929C280.872 145.174 281.254 145.531 281.556 146C281.859 146.463 282.096 147.031 282.267 147.703C282.439 148.37 282.525 149.271 282.525 150.406C282.525 151.75 282.387 152.836 282.111 153.664C281.835 154.487 281.421 155.125 280.869 155.578C280.322 156.026 279.629 156.25 278.791 156.25C277.687 156.25 276.82 155.854 276.189 155.062C275.434 154.109 275.056 152.557 275.056 150.406ZM276.502 150.406C276.502 152.286 276.721 153.539 277.158 154.164C277.601 154.784 278.145 155.094 278.791 155.094C279.437 155.094 279.978 154.781 280.416 154.156C280.859 153.531 281.08 152.281 281.08 150.406C281.08 148.521 280.859 147.268 280.416 146.648C279.978 146.028 279.431 145.719 278.775 145.719C278.129 145.719 277.614 145.992 277.228 146.539C276.744 147.237 276.502 148.526 276.502 150.406ZM291.32 143.862H292.472V157.35H291.32V143.862ZM288.488 147.206H295V148.326H288.488V147.206ZM291.368 147.638L292.152 147.958C291.981 148.524 291.773 149.116 291.528 149.734C291.293 150.342 291.032 150.945 290.744 151.542C290.456 152.129 290.157 152.684 289.848 153.206C289.538 153.718 289.229 154.156 288.92 154.518C288.845 154.358 288.744 154.166 288.616 153.942C288.488 153.718 288.37 153.532 288.264 153.382C288.669 152.956 289.069 152.422 289.464 151.782C289.869 151.132 290.237 150.444 290.568 149.718C290.898 148.982 291.165 148.289 291.368 147.638ZM294.104 142.758L294.792 143.718C294.258 143.921 293.645 144.102 292.952 144.262C292.258 144.422 291.538 144.566 290.792 144.694C290.056 144.812 289.346 144.913 288.664 144.998C288.642 144.86 288.594 144.705 288.52 144.534C288.456 144.353 288.386 144.193 288.312 144.054C288.994 143.958 289.693 143.846 290.408 143.718C291.122 143.58 291.8 143.43 292.44 143.27C293.09 143.1 293.645 142.929 294.104 142.758ZM292.408 148.566C292.493 148.652 292.621 148.796 292.792 148.998C292.962 149.19 293.154 149.414 293.368 149.67C293.581 149.916 293.789 150.161 293.992 150.406C294.194 150.652 294.376 150.876 294.536 151.078C294.706 151.27 294.824 151.42 294.888 151.526L294.168 152.534C294.061 152.332 293.906 152.07 293.704 151.75C293.501 151.43 293.282 151.1 293.048 150.758C292.813 150.406 292.589 150.081 292.376 149.782C292.162 149.484 291.986 149.249 291.848 149.078L292.408 148.566ZM299.912 152.774L300.968 152.374C301.256 152.833 301.538 153.329 301.816 153.862C302.104 154.385 302.36 154.897 302.584 155.398C302.818 155.889 302.994 156.326 303.112 156.71L301.976 157.19C301.858 156.806 301.688 156.358 301.464 155.846C301.25 155.334 301.005 154.812 300.728 154.278C300.461 153.734 300.189 153.233 299.912 152.774ZM296.632 152.406L297.832 152.678C297.565 153.585 297.213 154.449 296.776 155.27C296.349 156.081 295.874 156.764 295.352 157.318C295.277 157.254 295.176 157.18 295.048 157.094C294.93 157.009 294.808 156.918 294.68 156.822C294.552 156.737 294.434 156.673 294.328 156.63C294.85 156.118 295.309 155.489 295.704 154.742C296.098 153.996 296.408 153.217 296.632 152.406ZM296.648 144.902V149.686H301.208V144.902H296.648ZM295.496 143.75H302.408V150.838H295.496V143.75ZM306.744 148.662H315.912V149.83H306.744V148.662ZM315.496 148.662H316.744C316.744 148.662 316.744 148.7 316.744 148.774C316.744 148.849 316.744 148.934 316.744 149.03C316.744 149.116 316.738 149.185 316.728 149.238C316.664 150.486 316.6 151.548 316.536 152.422C316.482 153.286 316.413 154.006 316.328 154.582C316.253 155.158 316.168 155.612 316.072 155.942C315.976 156.273 315.853 156.513 315.704 156.662C315.544 156.865 315.368 157.004 315.176 157.078C314.984 157.164 314.749 157.217 314.472 157.238C314.205 157.26 313.837 157.265 313.368 157.254C312.909 157.254 312.429 157.238 311.928 157.206C311.917 157.025 311.874 156.822 311.8 156.598C311.736 156.374 311.645 156.177 311.528 156.006C312.05 156.049 312.536 156.076 312.984 156.086C313.432 156.108 313.752 156.118 313.944 156.118C314.104 156.118 314.237 156.102 314.344 156.07C314.45 156.038 314.541 155.985 314.616 155.91C314.776 155.761 314.904 155.441 315 154.95C315.106 154.449 315.197 153.713 315.272 152.742C315.357 151.761 315.432 150.481 315.496 148.902V148.662ZM308.936 142.934L310.216 143.302C309.821 144.198 309.357 145.057 308.824 145.878C308.301 146.7 307.725 147.452 307.096 148.134C306.477 148.817 305.832 149.414 305.16 149.926C305.085 149.841 304.984 149.74 304.856 149.622C304.728 149.505 304.594 149.388 304.456 149.27C304.328 149.153 304.216 149.057 304.12 148.982C304.802 148.534 305.448 147.996 306.056 147.366C306.664 146.737 307.213 146.049 307.704 145.302C308.194 144.545 308.605 143.756 308.936 142.934ZM314.52 142.902C314.776 143.436 315.09 143.985 315.464 144.55C315.837 145.105 316.242 145.644 316.68 146.166C317.117 146.678 317.565 147.158 318.024 147.606C318.493 148.044 318.946 148.417 319.384 148.726C319.277 148.812 319.154 148.918 319.016 149.046C318.888 149.164 318.765 149.286 318.648 149.414C318.541 149.542 318.45 149.665 318.376 149.782C317.928 149.42 317.474 148.998 317.016 148.518C316.557 148.028 316.104 147.5 315.656 146.934C315.218 146.369 314.802 145.782 314.408 145.174C314.024 144.566 313.677 143.964 313.368 143.366L314.52 142.902ZM310.12 148.998H311.416C311.33 149.873 311.192 150.726 311 151.558C310.808 152.39 310.514 153.174 310.12 153.91C309.725 154.646 309.176 155.313 308.472 155.91C307.778 156.508 306.872 157.009 305.752 157.414C305.698 157.308 305.629 157.185 305.544 157.046C305.458 156.918 305.362 156.79 305.256 156.662C305.16 156.545 305.064 156.444 304.968 156.358C306.013 156.017 306.856 155.585 307.496 155.062C308.146 154.529 308.648 153.937 309 153.286C309.352 152.636 309.608 151.948 309.768 151.222C309.928 150.497 310.045 149.756 310.12 148.998Z" fill="#29B6F6"/>
</g>
<defs>
<filter id="filter0_d_4_2185" x="0" y="0" width="379.492" height="223.92" filterUnits="userSpaceOnUse" color-interpolation-filters="sRGB">
<feFlood flood-opacity="0" result="BackgroundImageFix"/>
<feColorMatrix in="SourceAlpha" type="matrix" values="0 0 0 0 0 0 0 0 0 0 0 0 0 0 0 0 0 0 127 0" result="hardAlpha"/>
<feOffset dy="4"/>
<feGaussianBlur stdDeviation="8"/>
<feComposite in2="hardAlpha" operator="out"/>
<feColorMatrix type="matrix" values="0 0 0 0 0 0 0 0 0 0 0 0 0 0 0 0 0 0 0.08 0"/>
<feBlend mode="normal" in2="BackgroundImageFix" result="effect1_dropShadow_4_2185"/>
<feBlend mode="normal" in="SourceGraphic" in2="effect1_dropShadow_4_2185" result="shape"/>
</filter>
<linearGradient id="paint0_linear_4_2185" x1="16" y1="12" x2="178.444" y2="306.122" gradientUnits="userSpaceOnUse">
<stop stop-color="white"/>
<stop offset="1" stop-color="#4FC3F7" stop-opacity="0.082"/>
</linearGradient>
<clipPath id="clip0_4_2185">
<rect width="19.9917" height="19.9917" fill="white" transform="translate(223.533 57.9808)"/>
</clipPath>
<clipPath id="clip1_4_2185">
<rect width="15.9933" height="15.9933" fill="white" transform="translate(236.151 143.945)"/>
</clipPath>
</defs>
</svg>
